PathFileType	4	(X/Y/Z)	C:/Users/beibeiliu/ov580/test_trc/User1\sequence.29_training_dense_right.trc
DataRate	CameraRate	NumFrames	NumMarkers	Units	OrigDataRate	OrigDataStartFrame	OrigNumFrames
120	120	12	19	mm	120	114	142
Frame#	Time	ThumbCMC			ThumbMCP			ThumbIP			ThumbTip			IndexMCP			IndexPIP			IndexTip			MiddleMCP			MiddlePIP			MiddleTip			RingMCP			RingPIP			RingTip			PinkyMCP			PinkyPIP			PinkyTip			BackHand1			BackHand2			BackHand3	
		X0	Y0	Z0	X1	Y1	Z1	X2	Y2	Z2	X3	Y3	Z3	X4	Y4	Z4	X5	Y5	Z5	X6	Y6	Z6	X7	Y7	Z7	X8	Y8	Z8	X9	Y9	Z9	X10	Y10	Z10	X11	Y11	Z11	X12	Y12	Z12	X13	Y13	Z13	X14	Y14	Z14	X15	Y15	Z15	X16	Y16	Z16	X17	Y17	Z17	X18	Y18	Z18	
113	0.941667	69.33	42.1489	137.768	46.2311	30.9677	116.243	26.6835	25.7606	96.9281	10.0548	17.6594	81.9986	54.8389	63.4136	51.2914	48.4466	56.9316	28.6686	43.2865	43.8612	4.30228	86.0176	53.3201	38.6177	73.088	17.6696	27.3537	80.6806	-7.11911	51.4651	107.341	49.1912	37.2579	96.3767	16.2629	26.6105	97.6202	-5.19975	50.3929	139.729	50.3513	46.4518	144.681	49.5047	29.9069	149.668	56.061	8.74163	123.089	68.436	96.7599	137.321	65.8295	125.531	95.478	70.5824	118.694	
114	0.95	74.3121	44.3275	131.104	49.6557	29.5977	119.51	30.4809	25.4736	99.6992	15.9305	17.302	82.2452	57.5022	61.6947	49.3977	49.8268	51.3502	25.6575	46.728	34.7507	-1.95602	84.981	62.1581	34.0671	80.1172	39.5542	11.1409	75.1437	-2.094	17.0873	117.567	59.499	35.0662	105.509	35.0954	8.965	99.8493	3.86374	17.0315	144.845	51.9323	45.6046	149.893	51.1186	27.7926	159.712	54.2564	4.01893	127.187	67.4869	89.9878	141.616	64.4932	126.019	101.089	71.443	115.064	
115	0.958333	78.1287	38.7538	129.568	54.4114	23.3832	111.114	33.1178	14.3982	95.0538	20.2143	5.03379	78.9192	60.296	53.5008	44.5862	53.9299	41.5723	22.2684	49.1356	19.8758	-1.76385	96.0045	66.6382	31.6933	90.5303	55.7283	2.69557	80.6171	24.5427	-19.7693	119.16	65.463	33.4888	118.136	59.1714	5.21969	110.731	32.6526	-14.0152	152.006	47.0377	47.6812	159.499	43.7021	25.1337	162.624	46.8615	3.57351	131.872	63.6523	90.0839	140.557	63.5783	124.103	99.4632	65.7828	114.721	
116	0.966667	77.9645	33.6925	122.011	58.6522	10.1862	109.132	42.5533	-0.927753	84.7304	32.8265	-14.3142	74.0396	65.7782	47.8845	39.6016	59.6168	32.4403	14.1918	57.3526	10.741	-2.4359	99.9733	67.2809	28.6681	92.1408	65.1769	1.05319	90.8139	52.9445	-31.0807	125.2	63.527	31.4397	122.32	64.2808	4.89291	120.725	53.8828	-24.7019	151.051	40.123	43.3807	158.038	33.4618	19.3347	160.962	31.5225	-4.28702	131.466	62.3723	89.3729	145.242	62.0926	120.282	101.671	64.9731	109.349	
117	0.975	79.1372	27.2157	117.325	63.2608	-1.06218	99.827	55.2356	-12.915	75.298	48.1527	-27.7386	61.4924	72.5611	47.8572	38.1868	63.6144	32.1725	13.7943	63.501	7.42004	-2.8093	104.008	66.861	28.0083	100.328	68.5229	-1.25601	97.5442	68.4342	-32.7954	124.899	57.4359	30.819	122.065	61.3143	0.430907	123.113	57.6505	-24.1733	150.24	31.9383	35.521	149.318	22.8834	16.3751	144.125	18.1264	-6.86269	136.166	56.4463	87.6136	141.748	56.3902	116.109	108.729	60.5208	107.559	
118	0.983333	85.0349	26.8484	116.628	69.9967	-2.15392	95.2111	64.4244	-13.8381	71.0485	55.9877	-31.0974	48.7276	74.2596	51.4316	37.1331	68.0918	35.9319	12.4526	65.3475	8.10696	-3.75027	105.003	68.0479	28.8365	99.9872	73.3946	0.479886	100.522	76.4656	-27.9197	129.933	52.0559	28.776	124.248	55.5067	-2.00337	121.802	53.662	-23.5268	143.609	28.2144	33.9059	135.726	17.3565	12.7696	122.507	9.75999	-4.83764	140.393	54.7764	82.2184	148.31	52.9317	113.753	107.757	60.5127	104.734	
119	0.991667	85.9777	28.8613	116.942	67.8939	1.92261	90.6739	62.3491	-9.48649	65.2028	60.1635	-23.4294	43.3964	74.3969	55.8203	35.2517	67.7141	40.2773	10.6879	63.7502	16.4386	-3.33063	109.236	69.5429	30.38	104.251	75.3071	4.70973	102.088	80.1368	-23.7553	126.745	52.1106	27.1448	118.55	53.2267	0.246601	115.117	50.1514	-26.7293	138.33	28.5996	35.2843	127.697	17.2636	14.7965	109.902	7.86742	2.17036	142.924	53.0669	85.2946	152.29	49.1331	114.969	114.035	62.5965	104.358	
120	1	83.2032	32.4871	115.967	71.3921	9.07975	88.2325	63.6308	-2.04359	63.7657	60.1268	-12.1395	40.8014	79.2902	62.0884	39.5136	69.7817	47.3675	10.819	60.9761	27.149	-6.70318	110.42	73.2578	27.7769	104.361	78.3735	4.34324	102.722	83.7559	-27.3468	123.865	55.855	24.6891	118.309	54.6127	-2.78338	116.464	49.3857	-25.2502	139.017	30.4749	37.611	129.229	21.9806	17.259	107.23	6.65127	-1.22037	142.963	54.5044	81.2993	152.755	48.353	114.076	113.298	62.4382	110.709	
121	1.00833	85.3061	36.0833	116.841	70.359	14.6334	88.0728	58.7566	5.58907	65.5385	48.9195	-7.83774	46.4775	87.0488	68.4763	38.8996	76.7378	61.1124	10.0607	71.7025	45.9642	-9.75007	118.954	75.0245	32.913	111.685	85.9356	2.63329	114.637	90.7286	-28.0255	136.983	56.5765	24.1179	132.468	55.8919	-4.49441	124.747	48.8363	-29.013	148.303	29.5443	31.8755	138.926	19.065	11.5686	122.077	7.61144	-6.66337	147.601	53.0627	85.1178	156.935	48.3763	113.001	120.318	65.4087	107.955	
122	1.01667	92.2572	46.2712	112.244	69.4896	26.9786	91.1629	52.0793	17.2161	68.2002	43.6405	5.81029	47.9145	98.033	80.6409	40.2378	87.5014	81.2552	8.55197	77.6167	75.5841	-16.4035	130.934	78.8813	30.4477	127.86	88.6641	2.28898	127.276	93.8903	-26.0478	144.803	53.6316	24.5167	138.689	51.3594	-6.58174	124.172	37.7324	-30.6816	155.438	24.3041	35.3791	145.071	17.4089	10.843	131.912	12.9539	-8.51963	155.885	49.7355	83.3683	162.399	47.3115	113.242	126.446	68.3937	105.902	
123	1.025	91.5405	58.6063	113.464	66.4107	40.4551	89.914	54.8442	31.2634	65.3718	46.3188	17.4708	40.2011	107.839	93.1259	38.435	106.285	97.1028	11.685	97.8267	97.5966	-12.8443	137.891	78.1019	27.0551	140.716	83.0096	-2.1088	138.976	89.7383	-31.3763	140.425	51.6015	18.9603	128.899	41.0735	-8.2556	106.389	26.0299	-19.3732	150.3	22.3392	30.5944	145.102	16.9587	12.2273	139.013	12.4277	-15.5676	156.566	48.1122	76.6128	161.53	43.1858	114.027	136.785	70.6384	100.02	
124	1.03333	97.885	64.3058	111.302	72.5065	48.0812	84.8907	58.3487	39.3	57.5832	56.7274	23.9414	34.7971	118.907	94.5087	34.9443	116.339	101.287	7.40174	111.706	105.215	-16.5712	142.85	76.6854	23.2426	145.904	77.7739	-4.21064	145.21	82.446	-35.272	136.775	43.9364	15.9709	112.523	34.8746	-5.37124	88.6528	22.1205	-1.95056	150.309	17.9013	30.537	147.472	15.3158	13.3361	148.281	15.024	-12.1326	156.868	46.6034	79.8102	164.302	40.3777	109.046	140.157	70.9928	97.941	
